<mxfile host="app.diagrams.net" modified="2023-07-02T16:57:57.321Z" agent="Mozilla/5.0 (Windows NT 10.0; Win64; x64) AppleWebKit/537.36 (KHTML, like Gecko) Chrome/114.0.0.0 Safari/537.36 OPR/100.0.0.0" version="21.5.2" etag="m0Y6zNiPmWfGstSZzUGO" type="github">
  <diagram name="PÃ¡gina-1" id="0ioNrnbykCHdm7FDNcjE">
    <mxGraphModel>
      <root>
        <mxCell id="0" />
        <mxCell id="1" parent="0" />
      </root>
    </mxGraphModel>
  </diagram>
</mxfile>
